<svg width="27" height="12" viewBox="0 0 27 12" fill="none" xmlns="http://www.w3.org/2000/svg">
<path d="M22.1472 11.4934C23.3766 11.4934 23.9553 11.0223 24.4607 9.59402L26.675 3.35594H25.393L23.9081 8.18212H23.8821L22.3972 3.36248H21.0788L23.215 9.29988L23.1006 9.66102C23.0198 10.178 22.5577 10.5467 22.0376 10.5086C21.9384 10.5086 21.7459 10.4982 21.6678 10.4879V11.4684C21.8267 11.4902 21.9872 11.5005 22.1472 11.5V11.4934ZM17.8748 8.3695C17.2024 8.3695 16.7756 8.04267 16.7756 7.54807C16.7756 7.03549 17.1872 6.73699 17.9741 6.6896L19.3754 6.60081V7.06164C19.3445 7.82097 18.7062 8.41199 17.9502 8.38094C17.9247 8.37985 17.8998 8.37767 17.8748 8.37549V8.3695ZM17.5364 9.33746C18.2995 9.35816 19.0131 8.95888 19.3966 8.29596H19.4226V9.27645H20.5897V5.2156C20.5897 4.03793 19.652 3.27914 18.2084 3.27914C16.8694 3.27914 15.8791 4.04827 15.8428 5.10557H16.9789C17.1145 4.56793 17.6232 4.21332 18.172 4.27324C18.9432 4.27324 19.3754 4.63439 19.3754 5.29894V5.74888L17.8027 5.84311C16.3384 5.9319 15.5467 6.53381 15.5467 7.58075C15.5456 8.6424 16.3634 9.34345 17.5359 9.34345L17.5364 9.33746ZM10.7732 2.18371H12.2266C13.321 2.18371 13.9463 2.76983 13.9463 3.80097C13.9463 4.83212 13.321 5.42314 12.2217 5.42314H10.7732V2.18371ZM9.51231 1.11607V9.27482H10.7732V6.4935H12.5189C13.9409 6.57031 15.1551 5.47488 15.2316 4.04664C15.2359 3.96548 15.2365 3.88486 15.2332 3.8037C15.3005 2.39125 14.2153 1.19179 12.809 1.1237C12.7261 1.11989 12.6436 1.12043 12.5607 1.12424L9.51231 1.11607ZM5.32725 2.63855C4.60271 2.59661 3.98285 3.05199 3.63902 3.05199C3.29519 3.05199 2.76372 2.6598 2.19049 2.67069C1.43125 2.6903 0.73925 3.11245 0.372101 3.78028C-0.409377 5.13062 0.168734 7.12973 0.924181 8.22842C1.29404 8.77314 1.73766 9.3696 2.32065 9.34836C2.87272 9.32766 3.09182 8.98721 3.75887 8.98721C4.42592 8.98721 4.62386 9.34836 5.2074 9.33746C5.81154 9.32711 6.19224 8.79274 6.56319 8.24803C6.82458 7.86237 7.02795 7.44022 7.16733 6.99518C6.45527 6.68252 5.99376 5.9782 5.98996 5.19762C6.00081 4.5091 6.35982 3.87397 6.94335 3.51282C6.57132 2.98227 5.97423 2.65653 5.32833 2.63365L5.32725 2.63855ZM4.87496 1.91789C4.5577 2.31935 4.07233 2.54976 3.56201 2.5405C3.52947 2.04045 3.69867 1.54858 4.03111 1.1749C4.36193 0.789244 4.82832 0.54739 5.33267 0.5C5.36846 1.01421 5.20414 1.52189 4.87387 1.91626" fill="black"/>
</svg>
