<svg width="24" height="16" viewBox="0 0 24 16" fill="none" xmlns="http://www.w3.org/2000/svg">
<rect width="23.2" height="16" rx="4" fill="black"/>
<path d="M8.73149 5.09392C8.73586 4.42244 8.19441 3.87457 7.52213 3.87021C6.84986 3.86585 6.30133 4.40665 6.29697 5.07813C6.2926 5.74961 6.83405 6.29748 7.50632 6.30184C8.1786 6.3062 8.72713 5.76539 8.73149 5.09392Z" fill="url(#paint0_linear_1910_1064)"/>
<path d="M9.68955 4.25977H11.0502V11.9713H9.68955V4.25977Z" fill="white"/>
<path d="M12.2577 6.92044H13.6184V11.9713H12.2577V6.92044Z" fill="white"/>
<path d="M6.1519 6.87002C5.72589 6.86942 5.30641 6.97458 4.93118 7.17604V4.25994H3.57031V9.44751C3.57018 9.95744 3.72144 10.456 4.00497 10.88C4.28851 11.3041 4.69157 11.6346 5.1632 11.8299C5.63483 12.0251 6.15383 12.0763 6.65458 11.9769C7.15533 11.8776 7.61533 11.6321 7.9764 11.2716C8.33748 10.9111 8.58341 10.4517 8.68311 9.95163C8.7828 9.45152 8.73177 8.93311 8.53648 8.46197C8.34118 7.99082 8.01039 7.5881 7.58594 7.30474C7.16148 7.02137 6.66243 6.87009 6.1519 6.87002ZM6.1519 10.6884C5.90622 10.6884 5.66607 10.6156 5.46179 10.4793C5.25752 10.343 5.0983 10.1492 5.00428 9.92252C4.91026 9.69582 4.88565 9.44636 4.93356 9.20569C4.98148 8.96502 5.09977 8.74395 5.27348 8.57042C5.44718 8.3969 5.6685 8.27872 5.90945 8.23083C6.1504 8.18293 6.40016 8.20748 6.62715 8.30136C6.85413 8.39524 7.04814 8.55424 7.18466 8.75825C7.32117 8.96226 7.39405 9.20213 7.39409 9.44751C7.39416 9.61047 7.36207 9.77184 7.29967 9.92241C7.23727 10.073 7.14578 10.2098 7.03042 10.325C6.91506 10.4403 6.7781 10.5317 6.62736 10.594C6.47662 10.6564 6.31505 10.6884 6.1519 10.6884Z" fill="white"/>
<path d="M18.0946 11.9716H19.8474L17.7415 9.25504L19.6511 6.92079H18.0613L16.1861 9.26962V4.2608H14.8251V11.9716H16.1861L16.1851 9.27614L18.0946 11.9716Z" fill="white"/>
<defs>
<linearGradient id="paint0_linear_1910_1064" x1="6.64683" y1="5.9388" x2="8.37961" y2="4.22876" gradientUnits="userSpaceOnUse">
<stop stop-color="#E52F08"/>
<stop offset="1" stop-color="#E94F96"/>
</linearGradient>
</defs>
</svg>
