<svg width="48" height="16" viewBox="0 0 48 16" fill="none" xmlns="http://www.w3.org/2000/svg">
<path fill-rule="evenodd" clip-rule="evenodd" d="M5.32855 7.4816C5.46421 7.53668 5.58731 7.60679 5.67273 7.69692C5.73805 7.76452 5.78829 7.83463 5.831 7.91224C5.95159 8.13257 5.9742 8.36292 5.97169 8.51565C5.97169 8.62581 5.95662 8.69592 5.95662 8.69592C5.95662 8.69592 5.94908 8.75601 5.93652 8.85115C5.90637 9.06897 5.84859 9.47959 5.79081 9.8226C5.73805 10.1331 5.67524 10.3884 5.67524 10.3884C5.67524 10.3884 5.52199 11.077 4.94919 11.3799C4.37639 11.6829 3.56744 11.6503 3.56744 11.6503L1.49229 11.6403L1.07023 14.1941H0L1.1456 7.29883H2.42435H4.14275C4.14275 7.29883 4.22314 7.29883 4.34876 7.30384C4.48442 7.30884 4.67535 7.32387 4.87131 7.35892C5.02707 7.38646 5.18535 7.42652 5.32855 7.4816ZM4.62747 10.1356C4.75309 9.47959 4.84856 8.92626 4.84856 8.91374C4.84856 8.91248 4.84905 8.90882 4.84983 8.90307C4.85368 8.87462 4.86445 8.79509 4.85609 8.70343C4.84856 8.62831 4.82846 8.54319 4.7757 8.47809C4.7355 8.42802 4.60989 8.39547 4.45161 8.37544C4.26822 8.3504 4.04463 8.34289 3.8763 8.34038C3.72808 8.33788 3.62256 8.34038 3.62256 8.34038L2.05239 8.33538L1.67052 10.6263L3.40399 10.6313C3.40399 10.6313 3.79842 10.6463 4.16522 10.5687C4.3863 10.5211 4.57974 10.3859 4.62747 10.1356ZM13.9005 9.21669L9.97133 9.2217L9.81305 10.1932H12.3278L9.17745 13.2001L9.00661 14.1941L13.069 14.1916L13.2298 13.2302L10.4713 13.2352L13.7573 10.108L13.9005 9.21669ZM19.2289 7.29883H20.2589L19.1058 14.1941L18.0733 14.1916L19.2289 7.29883ZM25.7131 9.2192L24.7258 9.2217L25.2282 14.1941L26.4241 14.1891L27.9591 10.7089L28.3108 14.1891H29.5267L31.7024 9.2192H30.6773L29.1599 12.7319L28.8007 9.2167L27.5822 9.21419L26.0623 12.7194L25.7131 9.2192ZM16.1136 9.1541C16.5382 9.14909 17.0382 9.16912 17.3271 9.26176C18.1863 9.54218 18.3043 10.2557 18.1385 11.1921L17.9953 12.0184L14.6414 12.0284C14.6414 12.0284 14.5761 12.1811 14.5485 12.767C14.546 12.782 14.546 12.792 14.546 12.7995C14.4993 13.2791 15.0302 13.289 15.1939 13.292C15.2063 13.2922 15.2165 13.2924 15.2243 13.2928L15.2582 13.2945C15.3929 13.3015 15.6962 13.3172 16.2217 13.2577C16.7995 13.1926 16.8573 12.4891 16.8573 12.4891L17.925 12.4866L17.8597 12.7545L17.8581 12.7612C17.8494 12.7983 17.8142 12.949 17.7165 13.1576C17.611 13.3829 17.4627 13.5732 17.4627 13.5732C17.4627 13.5732 17.1311 14.0139 16.503 14.1616C15.875 14.3093 15.0409 14.2442 15.0409 14.2442C15.0409 14.2442 14.644 14.2542 14.1767 14.074C13.7094 13.8962 13.5813 13.5131 13.5084 13.1025C13.4355 12.6894 13.6817 11.455 13.6817 11.455C13.6817 11.455 13.8049 10.3384 14.2194 9.82761C14.6339 9.31684 15.3625 9.21169 15.3625 9.21169C15.5157 9.17914 15.7041 9.15911 16.1136 9.1541ZM14.8047 11.072L17.1034 11.0745C17.1034 11.0745 17.1889 10.6639 17.1085 10.3935C17.0733 10.2783 16.9427 10.2007 16.8045 10.1731C16.39 10.088 15.88 10.1256 15.689 10.1431C15.4981 10.1606 15.2946 10.1831 15.1338 10.3033C14.9755 10.4235 14.8952 10.7089 14.8952 10.7089L14.8047 11.072ZM23.6556 9.26426C23.3667 9.17163 22.8668 9.1516 22.4422 9.1566C22.0327 9.16161 21.8443 9.18164 21.691 9.21419C21.691 9.21419 20.9625 9.31935 20.5479 9.83011C20.1334 10.3409 20.0103 11.4575 20.0103 11.4575C20.0103 11.4575 19.7641 12.6919 19.837 13.105C19.9098 13.5156 20.0379 13.8987 20.5052 14.0765C20.9725 14.2567 21.3694 14.2467 21.3694 14.2467C21.3694 14.2467 22.2035 14.3118 22.8316 14.1641C23.4597 14.0164 23.7913 13.5757 23.7913 13.5757C23.7913 13.5757 23.9395 13.3854 24.045 13.1601C24.1427 12.9515 24.1779 12.8008 24.1866 12.7637L24.1882 12.757L24.2535 12.4891L23.1858 12.4916C23.1858 12.4916 23.128 13.1951 22.5502 13.2602C22.049 13.3169 21.75 13.3052 21.6065 13.2996C21.5852 13.2988 21.5674 13.2981 21.5528 13.2978C21.5453 13.2974 21.5354 13.2972 21.5235 13.297C21.3611 13.2937 20.8277 13.2828 20.8745 12.8046C20.8745 12.797 20.8745 12.787 20.877 12.772C20.9047 12.1861 20.97 12.0334 20.97 12.0334L24.3239 12.0234L24.4671 11.1972C24.6329 10.2582 24.5148 9.54218 23.6556 9.26426ZM23.4219 11.0745L21.1231 11.072L21.2136 10.7089C21.2136 10.7089 21.2939 10.4235 21.4522 10.3033C21.6105 10.1831 21.8165 10.1606 22.0074 10.1431C22.1984 10.1256 22.7084 10.088 23.1229 10.1731C23.2611 10.2007 23.3917 10.2783 23.4269 10.3935C23.5073 10.6614 23.4219 11.0745 23.4219 11.0745ZM32.8883 9.2217L33.549 12.8571L35.4156 9.2192L36.4657 9.22921L33.7751 14.4245C33.7751 14.4245 33.2877 15.3659 32.9862 15.6037C32.6848 15.8416 32.4989 15.9493 32.2527 15.9743L32.1866 15.9811C31.9863 16.0021 31.8837 16.0128 31.6698 15.9743L31.4186 15.9292L31.5743 15.0003C31.5743 15.0003 31.9914 15.078 32.2376 14.9803C32.4863 14.8827 32.6848 14.462 32.6848 14.462L32.8104 14.2517L31.8381 9.2192L32.8883 9.2217ZM7.51911 9.56221C7.85324 9.37944 8.24516 9.21669 8.65969 9.21669H9.25761L9.08677 10.1781L8.519 10.1806C7.70502 10.1806 7.28798 10.8692 7.18749 11.425L6.70011 14.1666H5.59973L6.47903 9.21669H7.57689L7.51911 9.56221Z" fill="#D13239"/>
<path fill-rule="evenodd" clip-rule="evenodd" d="M28.8123 2.55918L30.0886 0.00286288C30.0886 0.00286288 32.8847 -0.0522194 35.2965 0.320838C37.7083 0.691392 39.9141 1.26224 39.8664 1.28728L33.7515 4.47454C33.7515 4.47454 32.322 3.5732 30.5483 3.01987C29.5434 2.72443 28.8123 2.55918 28.8123 2.55918ZM20.7277 1.35739L20.994 2.84711C20.994 2.84711 22.225 2.52163 23.6997 2.34636C25.594 2.08848 27.6114 2.36389 27.6114 2.36389L28.3701 0.0629531C28.3701 0.0629531 26.0763 0.215681 24.3454 0.53616C22.6169 0.856639 20.7277 1.35739 20.7277 1.35739ZM15.035 5.28826L13.505 4.26172C13.505 4.26172 14.8893 3.47805 16.7308 2.74696C18.5698 2.01587 19.5521 1.71041 19.5521 1.71041L19.8636 3.16509C19.8636 3.16509 18.0924 3.75597 17.0775 4.23418C16.0273 4.67985 15.035 5.28826 15.035 5.28826ZM11.2439 7.86711H7.94531C7.94531 7.86711 9.2316 6.88564 9.87977 6.46251C10.548 6.00433 12.1232 5.03288 12.1232 5.03288L13.9873 5.90167C13.9873 5.90167 13.0327 6.50507 12.5076 6.88815C11.9825 7.27122 11.2439 7.86711 11.2439 7.86711ZM36.8492 9.71487L37.932 9.71738L37.9973 9.29925C37.9973 9.29925 38.1129 8.54312 38.3717 8.3979C38.4546 8.35033 38.5877 8.30777 38.741 8.28023C39.0249 8.23015 39.3841 8.22515 39.6781 8.23516L39.7024 8.23597C40.1341 8.25038 40.3069 8.25615 40.7558 8.30777C41.2131 8.36035 41.0975 8.80101 41.0975 8.80101L41.0071 9.45949C41.0071 9.45949 40.9669 9.75493 40.8613 9.9377C40.7684 10.1004 40.5121 10.2106 40.3639 10.2582C40.0072 10.3734 38.7862 10.6838 38.7862 10.6838L37.8265 10.9592C37.8265 10.9592 37.2361 11.1295 36.907 11.4925C36.5754 11.8581 36.4448 12.2712 36.3995 12.4865C36.3543 12.7018 36.1006 14.1916 36.1006 14.1916L41.2809 14.1941L41.4542 13.1625L37.3567 13.1675L37.4296 12.7469C37.4296 12.7469 37.4773 12.3138 37.6532 12.171C37.6617 12.1641 37.6696 12.1568 37.678 12.1489L37.678 12.1489C37.7241 12.1061 37.7865 12.0481 38.0627 11.9507C38.2586 11.8806 38.9269 11.7028 38.9269 11.7028L40.4719 11.2822C40.4719 11.2822 41.3161 11.0669 41.6477 10.6062C41.9793 10.148 42.1074 9.26921 42.1074 9.26921C42.1074 9.26921 42.1979 8.41543 42.1275 8.14753C42.0597 7.87963 41.806 7.55915 41.497 7.42145C41.1879 7.28374 40.8664 7.20362 39.9343 7.21614C39.0023 7.22866 38.54 7.27122 38.0677 7.44648C37.5954 7.61924 37.3215 7.93471 37.1482 8.38038C36.9598 8.80351 36.8492 9.71487 36.8492 9.71487ZM46.6017 11.6327L47.3278 7.29626H46.0415L42.0369 11.5827L41.856 12.6693H45.3582L45.1019 14.1916L46.1772 14.1941L46.4309 12.6693L47.4233 12.6718L47.6016 11.6327H46.6017ZM45.5314 11.6352L43.2679 11.6327L46.0238 8.70586L45.5314 11.6352ZM36.1909 6.1846L34.8468 5.16808L42.5042 2.22368L42.5634 2.25047C43.5383 2.69157 44.081 2.93714 45.0366 3.55567C45.4185 3.80354 45.926 4.19913 46.0541 4.32432C46.4033 4.67234 46.7374 5.00784 46.9208 5.32331C47.2148 5.82907 47.2374 6.1846 47.2374 6.1846H36.1909Z" fill="#B3B2B1"/>
</svg>
