<?xml version="1.0" standalone="no"?>
<!DOCTYPE svg PUBLIC "-//W3C//DTD SVG 20010904//EN"
 "http://www.w3.org/TR/2001/REC-SVG-20010904/DTD/svg10.dtd">
<svg version="1.0" xmlns="http://www.w3.org/2000/svg"
 width="700.000000pt" height="700.000000pt" viewBox="0 0 700.000000 700.000000"
 preserveAspectRatio="xMidYMid meet">
<metadata>
Created by potrace 1.14, written by Peter Selinger 2001-2017
</metadata>
<g transform="translate(0.000000,700.000000) scale(0.100000,-0.100000)"
fill="#000000" stroke="none">
<path d="M10 3505 l0 -3495 3495 0 3495 0 0 3495 0 3495 -3495 0 -3495 0 0
-3495z m3500 1338 c49 -55 70 -109 70 -180 0 -69 -28 -158 -64 -200 l-22 -25
-37 25 c-76 52 -193 58 -294 16 -18 -7 -35 -10 -39 -6 -4 4 3 36 15 72 11 36
21 79 21 96 0 27 -2 30 -15 19 -8 -7 -15 -23 -15 -36 0 -32 -33 -118 -61 -159
l-23 -33 -28 21 c-19 14 -31 18 -38 11 -7 -7 5 -21 35 -42 136 -95 158 -275
53 -425 -18 -25 -22 -27 -37 -13 -43 39 -122 60 -213 57 -56 -2 -26 -17 35
-18 76 0 122 -19 182 -74 60 -55 86 -108 92 -184 6 -72 -6 -122 -47 -193 l-31
-53 -29 21 c-16 11 -48 27 -71 35 -52 19 -169 20 -169 3 0 -9 21 -13 73 -13
55 -1 82 -6 114 -23 98 -51 163 -153 163 -254 0 -64 -30 -155 -64 -194 l-22
-26 -39 23 c-25 15 -36 18 -30 9 18 -32 105 -137 140 -170 35 -33 37 -34 30
-10 -3 14 -20 44 -35 67 l-29 43 46 31 c90 63 193 75 279 35 138 -64 205 -211
157 -346 -11 -30 -23 -63 -28 -73 -6 -13 1 -20 31 -33 35 -15 41 -15 73 1 20
10 63 20 97 22 69 6 127 -14 195 -68 l39 -31 19 24 c11 13 45 37 78 53 72 37
173 42 240 11 23 -10 47 -16 55 -13 7 3 -9 15 -37 28 -72 33 -173 37 -245 10
-30 -11 -58 -17 -62 -13 -4 4 2 32 12 62 36 104 20 245 -34 289 -15 13 -15 15
1 34 10 11 45 33 78 48 146 70 298 16 377 -134 33 -62 31 -173 -4 -244 -18
-38 -21 -53 -12 -53 21 0 42 40 61 114 20 83 9 163 -32 225 -33 50 -29 58 58
101 78 39 169 42 237 8 24 -13 46 -30 48 -38 4 -12 1 -11 -15 3 -57 50 -169
58 -254 17 -84 -40 -83 -39 -49 -105 25 -47 30 -69 30 -124 0 -37 -7 -90 -15
-116 -8 -27 -13 -51 -11 -53 5 -5 82 35 131 68 66 44 68 44 39 -1 -193 -308
-517 -531 -884 -610 -150 -32 -400 -32 -550 0 -272 58 -502 183 -695 376 -197
196 -322 430 -382 715 -25 119 -25 391 0 510 60 285 185 519 382 715 220 221
492 354 805 394 125 16 135 15 170 -26z m63 26 c-9 -9 -6 -21 12 -48 48 -74
57 -190 20 -277 -8 -21 -14 -39 -12 -41 2 -1 25 4 51 13 72 25 188 16 254 -18
l52 -27 16 24 c50 76 66 183 40 258 -15 42 -4 52 12 10 27 -73 20 -160 -18
-238 -40 -80 -39 -79 -110 -42 -55 28 -73 32 -139 32 -56 0 -88 -6 -123 -22
-26 -12 -50 -18 -53 -13 -3 5 4 37 16 72 31 93 25 188 -18 256 -22 36 -28 53
-20 61 6 6 15 11 21 11 6 0 5 -5 -1 -11z m500 -152 c5 -39 -10 -144 -28 -189
-9 -22 -8 -22 45 -3 23 8 75 15 115 15 60 0 82 -5 131 -30 l59 -30 17 23 c9
12 19 19 23 16 3 -4 -5 -19 -18 -35 l-24 -28 -28 22 c-70 55 -210 65 -295 22
-53 -27 -58 -14 -30 71 16 47 21 81 18 127 -4 70 6 84 15 19z m207 -223 c71
-21 159 -107 183 -178 30 -89 14 -196 -43 -279 l-24 -35 -27 19 c-83 59 -223
69 -312 22 -42 -21 -50 -5 -28 52 40 106 35 202 -15 278 -24 37 -25 40 -8 58
19 22 93 59 138 70 50 11 79 10 136 -7z m-415 -19 c51 -25 115 -89 140 -140
29 -60 31 -158 6 -225 -11 -30 -31 -68 -44 -84 l-24 -30 -29 20 c-78 55 -201
66 -286 27 -60 -27 -73 -16 -47 42 41 93 35 204 -16 279 -14 20 -25 40 -25 44
0 12 65 52 116 73 61 24 152 21 209 -6z m-453 -13 c98 -44 168 -152 167 -257
0 -67 -13 -111 -53 -180 -25 -43 -29 -45 -45 -31 -64 58 -202 75 -299 38 -28
-11 -54 -16 -57 -11 -3 5 3 38 15 75 32 106 24 185 -26 259 -29 43 -24 54 40
87 100 52 175 57 258 20z m1071 -20 l-23 -17 31 -60 c29 -56 31 -65 26 -145
-2 -47 -12 -102 -21 -124 -15 -36 -15 -38 2 -31 49 21 110 35 146 35 50 0 116
-17 116 -30 0 -6 -10 -6 -26 0 -43 17 -149 12 -206 -10 -60 -23 -76 -15 -55
26 46 90 42 220 -9 297 -24 37 -25 40 -8 58 9 10 24 19 33 19 12 0 11 -4 -6
-18z m237 -392 c43 -12 67 -27 58 -35 -3 -4 -20 1 -37 9 -49 26 -147 21 -208
-9 -75 -38 -78 -44 -46 -105 43 -83 42 -178 -4 -296 -5 -14 -2 -14 28 2 26 15
55 19 129 19 84 0 101 -3 147 -27 l52 -28 14 21 c8 11 17 17 20 12 3 -5 -2
-19 -12 -31 l-17 -23 -63 33 c-56 29 -73 33 -140 32 -55 -1 -89 -7 -123 -22
-26 -12 -50 -17 -52 -13 -3 5 3 33 14 64 36 103 20 236 -36 298 -14 15 -12 19
13 37 93 65 180 86 263 62z m-402 -26 c57 -28 100 -73 134 -137 34 -63 32
-173 -3 -247 -15 -30 -33 -64 -41 -74 -15 -19 -16 -19 -47 4 -74 52 -184 64
-275 29 -31 -11 -60 -18 -65 -15 -5 4 -1 31 11 64 38 104 24 228 -33 288 l-20
22 35 27 c89 68 213 84 304 39z m-462 -3 c168 -77 225 -275 123 -436 l-28 -44
-61 32 c-82 42 -160 47 -248 18 -73 -25 -88 -21 -68 17 8 16 20 56 27 90 16
76 2 157 -36 212 -14 20 -25 39 -25 42 0 9 81 59 119 73 53 20 149 18 197 -4z
m-438 -17 c57 -28 100 -73 134 -137 34 -63 32 -173 -3 -247 -15 -30 -33 -64
-42 -74 -14 -19 -15 -19 -42 2 -66 52 -188 66 -279 31 -31 -11 -60 -18 -65
-15 -5 4 -1 31 11 64 38 104 24 228 -33 288 l-20 22 35 27 c89 68 213 84 304
39z m1368 -439 c44 -26 94 -78 94 -99 0 -6 -26 13 -57 44 -60 58 -109 80 -176
80 -42 0 -131 -32 -167 -59 l-24 -19 29 -54 c27 -47 30 -62 29 -138 0 -57 -6
-98 -17 -124 -10 -22 -16 -40 -15 -42 2 -1 28 6 58 16 68 24 120 25 190 4 51
-15 105 -43 97 -50 -2 -2 -30 8 -63 21 -75 31 -163 33 -236 5 -29 -11 -56 -16
-60 -12 -4 4 2 32 12 62 36 104 22 230 -32 287 l-21 22 24 21 c66 54 176 84
254 67 22 -4 59 -19 81 -32z m-919 -11 c140 -66 197 -232 129 -379 -15 -33
-34 -67 -42 -76 -15 -16 -18 -16 -51 7 -72 48 -185 58 -275 24 -29 -11 -56
-16 -60 -12 -4 4 2 32 12 62 36 104 22 230 -32 287 l-21 22 24 21 c59 49 166
82 234 72 17 -2 53 -15 82 -28z m459 6 c159 -91 200 -279 94 -433 l-24 -35
-54 31 c-74 42 -181 49 -262 18 -62 -24 -78 -16 -57 25 23 45 39 141 32 187
-4 23 -20 66 -36 95 -36 64 -32 72 56 114 86 40 179 40 251 -2z m-940 3 c70
-23 155 -110 179 -182 22 -68 15 -151 -20 -225 -38 -80 -42 -81 -115 -44 -53
28 -72 32 -134 32 -51 0 -85 -6 -120 -22 -27 -12 -53 -19 -58 -14 -5 5 -1 26
8 47 42 101 36 218 -15 292 l-29 41 39 28 c49 34 132 63 180 64 19 0 58 -8 85
-17z m469 -457 c57 -26 129 -99 152 -154 34 -78 10 -232 -46 -299 l-19 -23
-59 31 c-83 42 -153 48 -243 19 -39 -12 -73 -20 -76 -18 -3 3 4 33 16 67 35
106 20 230 -36 292 -14 15 -12 20 20 44 87 66 203 83 291 41z"/>
<path d="M3390 4835 c-36 -19 -96 -59 -135 -87 l-69 -53 -17 -85 c-9 -47 -20
-93 -24 -102 -9 -22 -8 -22 45 -3 23 8 75 15 115 15 60 0 82 -5 131 -30 32
-16 62 -26 66 -22 3 4 19 32 34 62 37 73 40 174 7 236 -24 44 -71 104 -81 104
-4 0 -36 -16 -72 -35z"/>
<path d="M3052 4559 c-29 -35 -52 -67 -52 -71 0 -4 10 -12 22 -19 18 -10 24
-8 39 12 22 28 52 114 47 131 -2 6 -28 -17 -56 -53z"/>
<path d="M2926 4381 c-37 -60 -109 -233 -121 -287 l-6 -31 70 -5 c48 -4 88
-14 123 -31 28 -14 56 -24 60 -21 23 14 61 114 66 170 4 51 0 71 -20 115 -24
51 -83 120 -120 140 -13 7 -23 -2 -52 -50z"/>
<path d="M2793 4002 c-16 -10 -35 -201 -28 -287 10 -118 4 -110 87 -110 58 -1
85 -6 133 -28 l59 -28 18 23 c28 37 52 119 52 179 -1 98 -68 195 -168 240 -41
19 -131 25 -153 11z"/>
<path d="M2790 3536 c0 -38 57 -203 101 -293 47 -94 54 -103 101 -127 27 -14
51 -26 53 -26 10 0 49 82 61 132 18 68 8 138 -26 194 -27 43 -94 103 -136 120
-45 19 -154 19 -154 0z"/>
<path d="M4123 3106 c-50 -16 -113 -54 -113 -68 0 -5 8 -22 19 -36 44 -62 52
-164 22 -262 -18 -56 -18 -61 -3 -54 98 42 194 41 284 -4 64 -32 62 -33 99 38
19 36 24 61 24 125 0 92 -15 132 -73 190 -74 75 -166 100 -259 71z"/>
<path d="M3253 3100 c-47 -10 -114 -42 -132 -64 -11 -13 -9 -20 7 -43 11 -16
26 -50 34 -76 12 -41 23 -55 85 -101 78 -59 203 -131 244 -141 25 -6 28 -3 48
50 44 117 21 226 -65 305 -69 63 -140 86 -221 70z"/>
<path d="M4085 2636 c-27 -12 -56 -30 -64 -39 -12 -15 -9 -17 31 -17 55 0 205
25 245 41 l28 11 -30 14 c-50 22 -152 17 -210 -10z"/>
<path d="M3665 2636 l-30 -13 40 -11 c62 -17 180 -34 217 -30 l33 3 -44 30
c-37 25 -55 30 -115 32 -44 2 -82 -2 -101 -11z"/>
<path d="M4119 4476 c-45 -16 -111 -56 -106 -65 53 -99 60 -124 54 -205 -3
-44 -13 -98 -22 -120 -16 -37 -16 -38 2 -31 106 45 192 45 288 1 31 -14 59
-26 62 -26 2 0 17 28 33 63 69 145 17 302 -122 371 -58 29 -129 34 -189 12z"/>
<path d="M3655 4464 c-22 -8 -53 -25 -70 -38 -28 -23 -29 -25 -13 -43 48 -52
63 -180 33 -278 -8 -27 -13 -50 -11 -52 1 -2 24 4 50 13 86 30 182 16 299 -44
4 -2 21 27 39 64 56 120 39 230 -48 318 -22 21 -57 47 -79 57 -48 22 -142 24
-200 3z"/>
<path d="M3205 4449 c-27 -10 -61 -27 -74 -38 l-23 -18 26 -40 c45 -67 52
-186 17 -276 -17 -44 -15 -45 47 -24 77 26 168 20 240 -17 62 -32 70 -28 100
42 48 112 35 212 -40 297 -79 89 -186 116 -293 74z"/>
<path d="M4134 4026 c-57 -18 -124 -57 -124 -72 0 -6 6 -17 14 -23 44 -37 59
-187 27 -279 -16 -47 -17 -52 -2 -47 107 42 197 41 287 -5 l55 -27 20 28 c50
71 65 199 30 274 -54 117 -196 188 -307 151z"/>
<path d="M3697 4020 c-43 -11 -94 -36 -119 -57 -15 -13 -14 -19 13 -70 24 -46
29 -67 29 -129 0 -40 -7 -94 -16 -120 -8 -25 -14 -48 -11 -50 2 -2 19 2 38 10
84 35 179 28 271 -19 l47 -25 33 67 c44 90 45 174 3 252 -61 111 -178 168
-288 141z"/>
<path d="M3234 4006 c-57 -18 -124 -57 -124 -72 0 -6 6 -17 14 -23 44 -37 59
-187 27 -279 -16 -47 -17 -52 -2 -47 107 42 197 41 287 -5 l55 -27 20 28 c50
71 65 199 30 274 -54 117 -196 188 -307 151z"/>
<path d="M3646 3546 c-92 -39 -95 -45 -60 -108 26 -47 29 -62 28 -138 0 -57
-6 -98 -17 -124 -10 -22 -16 -40 -15 -42 2 -1 30 7 63 18 78 26 162 20 240
-18 54 -27 56 -27 70 -8 33 44 57 128 53 189 -5 73 -27 122 -79 174 -81 80
-180 100 -283 57z"/>
<path d="M4123 3566 c-41 -13 -113 -53 -113 -63 0 -2 12 -25 28 -51 24 -43 27
-56 26 -142 0 -66 -5 -107 -17 -133 -11 -26 -13 -37 -4 -33 105 44 200 44 291
1 29 -14 56 -25 60 -25 4 0 20 28 36 63 104 219 -83 453 -307 383z"/>
<path d="M3205 3544 c-22 -8 -53 -24 -68 -37 l-28 -22 27 -49 c44 -79 44 -195
-2 -303 -3 -7 15 -4 48 9 75 28 182 22 257 -16 43 -22 56 -25 63 -14 58 86 75
202 41 279 -61 137 -203 201 -338 153z"/>
<path d="M3689 3107 c-25 -7 -66 -25 -92 -40 l-47 -28 24 -37 c49 -75 57 -179
22 -280 -8 -23 -14 -42 -12 -42 1 0 24 7 50 16 71 25 188 16 253 -18 58 -30
56 -30 94 42 19 36 24 61 24 125 0 69 -4 86 -27 126 -66 112 -180 165 -289
136z"/>
</g>
</svg>
